<svg width="64" height="64" viewBox="0 0 500.03458 539.74634" fill="none" xmlns="http://www.w3.org/2000/svg">
  <path
    fill="#5248fe"
    d="M 289.5,0.74617552 Q 416.2819,-6.5357245 472,57.246176 q 29.0192,26.9808 28,84.000004 -8.16,55.34 -44.5,82.5 -67.3736,57.3995 -199.5,49 -2.9603,58.3764 -18,105.5 -14.8394,40.6606 -45.5,65.5 l -17,14 0.5,-3.5 q 18.4679,-22.5321 22,-60 l 1,-139 q 1.3057,-47.1943 10,-87 11.7485,-62.2515 46,-102.000004 l -1.5,-0.5 q -39.4239,13.5761 -64.5,41.500004 -22.3782,25.6218 -30,66 -7.9429,44.0571 -4,100 6.3438,55.1563 5,118 -4.8072,76.1928 -49.5,112.5 -37.7369,36.0785 -110.5,36 l 1.5,-54 q 33.2837,-4.2163 49.5,-25.5 22.4193,-28.5807 29,-73 l 21,-173 18,-78 Q 136.7088,78.954976 176.5,43.746176 217.761,7.0071755 289.5,0.74617552 Z M 301,58.746176 q -16,23 -24,56.000004 -12,46 -15,101 l 2,-1 18,1 q 82,2 127,-34 21,-14 26,-45 1,-27 -12,-39.000004 -37,-44 -122,-39 z"
  />
</svg>